<svg width="104" height="24" viewBox="0 0 104 24" fill="none" xmlns="http://www.w3.org/2000/svg">
<path d="M4.20001 18.7598H4.96209e-06V-0.000234842H10.36C14.98 -0.000234842 17.612 2.04377 17.612 5.62777C17.612 8.67977 15.848 10.4998 12.32 10.8358V11.0598C14 11.5078 14.644 12.4038 15.344 13.7198L18.06 18.7598H13.188L10.612 13.8878C9.85601 12.4318 9.15601 11.9558 6.97201 11.9558H4.20001V18.7598ZM4.20001 3.77976V8.79177H10.332C12.32 8.79177 13.216 8.23177 13.216 6.27177C13.216 4.42376 12.32 3.77976 10.332 3.77976H4.20001ZM23.6987 19.0398C20.6747 19.0398 18.8547 17.6398 18.8547 15.2878C18.8547 13.2158 20.3947 11.9278 23.3907 11.6198L29.4107 11.0038V10.4718C29.4107 8.65176 28.5987 8.14777 26.3587 8.14777C24.2307 8.14777 23.3627 8.70776 23.3627 10.3038V10.4158H19.1347V10.3318C19.1347 6.85977 22.0467 4.45176 26.6667 4.45176C31.3427 4.45176 33.5547 6.85977 33.5547 10.5278V18.7598H29.6347V15.5398H29.4107C28.7667 17.7238 26.8067 19.0398 23.6987 19.0398ZM23.0827 15.0078C23.0827 15.7638 23.6707 16.0718 24.9027 16.0718C27.7587 16.0718 29.2987 15.3998 29.4107 13.4118L24.5387 13.9718C23.5307 14.0558 23.0827 14.3358 23.0827 15.0078ZM45.5676 18.7598H42.0956C38.8196 18.7598 36.8316 17.2198 36.8316 13.6918V8.20377H34.6196V4.73176H36.8316V2.01576H41.0316V4.73176H45.5676V8.20377H41.0316V13.2158C41.0316 14.6158 41.5636 14.9798 43.0476 14.9798H45.5676V18.7598ZM51.3406 3.30376H47.1406V-0.000234842H51.3406V3.30376ZM51.3406 18.7598H47.1406V4.73176H51.3406V18.7598ZM57.7391 18.7598H53.5391V4.73176H57.4311V9.04377H57.6831C58.0471 6.69176 59.7271 4.45176 63.3951 4.45176C67.2311 4.45176 69.0511 6.91577 69.0511 10.0238V18.7598H64.8511V11.4238C64.8511 9.18377 63.9271 8.23177 61.3511 8.23177C58.6911 8.23177 57.7391 9.29576 57.7391 11.6758V18.7598ZM77.3358 17.3318C73.1638 17.3318 70.7558 14.8398 70.7558 10.8918C70.7558 6.97176 73.3038 4.45176 77.5038 4.45176C80.3598 4.45176 82.4038 5.68377 82.8518 8.11976H83.0758V4.73176H86.9958V16.7158C86.9958 21.6158 84.0278 23.7998 79.0158 23.7998C74.4798 23.7998 71.6238 21.7838 71.6238 18.2558H75.8238C75.8238 19.8238 76.4398 20.2998 79.2958 20.2998C81.9838 20.2998 82.7958 19.7398 82.7958 16.9958V13.8318H82.5718C82.1238 15.9038 80.4718 17.3318 77.3358 17.3318ZM74.9838 10.8918C74.9838 12.9638 76.1598 13.7198 78.7918 13.7198C81.4798 13.7198 82.7958 12.9638 82.7958 11.0318V10.7238C82.7958 8.81977 81.4518 8.09177 78.8478 8.09177C76.1598 8.09177 74.9838 8.81977 74.9838 10.8918ZM96.3067 19.0398C91.5747 19.0398 88.9707 17.1918 88.9707 13.9438V13.8598H93.1707V14.1118C93.1707 15.3718 93.9547 15.7078 96.3347 15.7078C98.5747 15.7078 99.1067 15.3438 99.1067 14.5038C99.1067 13.7198 98.6867 13.4958 97.0347 13.2718L93.0867 12.7958C90.2867 12.4878 88.7187 11.2278 88.7187 8.87577C88.7187 6.41177 90.8187 4.45176 95.6347 4.45176C100.227 4.45176 102.831 6.18776 102.831 9.60377V9.68777H98.6307V9.51977C98.6307 8.37177 98.0707 7.78377 95.4947 7.78377C93.3947 7.78377 92.8627 8.14777 92.8627 9.04377C92.8627 9.77177 93.2547 10.0798 95.1027 10.3038L98.0987 10.6678C101.851 11.0878 103.251 12.3478 103.251 14.6718C103.251 17.3038 100.647 19.0398 96.3067 19.0398Z" fill="white"/>
</svg>
